%TF.GenerationSoftware,KiCad,Pcbnew,6.0.11+dfsg-1~bpo11+1*%
%TF.CreationDate,2023-05-21T11:53:20+01:00*%
%TF.ProjectId,gbc_rumble_board,6762635f-7275-46d6-926c-655f626f6172,rev?*%
%TF.SameCoordinates,Original*%
%TF.FileFunction,Legend,Top*%
%TF.FilePolarity,Positive*%
%FSLAX46Y46*%
G04 Gerber Fmt 4.6, Leading zero omitted, Abs format (unit mm)*
G04 Created by KiCad (PCBNEW 6.0.11+dfsg-1~bpo11+1) date 2023-05-21 11:53:20*
%MOMM*%
%LPD*%
G01*
G04 APERTURE LIST*
%ADD10C,0.150000*%
%ADD11C,0.120000*%
G04 APERTURE END LIST*
D10*
X138773066Y-90231980D02*
X139106400Y-91231980D01*
X139439733Y-90231980D01*
X140344495Y-91136742D02*
X140296876Y-91184361D01*
X140154019Y-91231980D01*
X140058780Y-91231980D01*
X139915923Y-91184361D01*
X139820685Y-91089123D01*
X139773066Y-90993885D01*
X139725447Y-90803409D01*
X139725447Y-90660552D01*
X139773066Y-90470076D01*
X139820685Y-90374838D01*
X139915923Y-90279600D01*
X140058780Y-90231980D01*
X140154019Y-90231980D01*
X140296876Y-90279600D01*
X140344495Y-90327219D01*
X141344495Y-91136742D02*
X141296876Y-91184361D01*
X141154019Y-91231980D01*
X141058780Y-91231980D01*
X140915923Y-91184361D01*
X140820685Y-91089123D01*
X140773066Y-90993885D01*
X140725447Y-90803409D01*
X140725447Y-90660552D01*
X140773066Y-90470076D01*
X140820685Y-90374838D01*
X140915923Y-90279600D01*
X141058780Y-90231980D01*
X141154019Y-90231980D01*
X141296876Y-90279600D01*
X141344495Y-90327219D01*
X132108819Y-85389980D02*
X131775485Y-84913790D01*
X131537390Y-85389980D02*
X131537390Y-84389980D01*
X131918342Y-84389980D01*
X132013580Y-84437600D01*
X132061200Y-84485219D01*
X132108819Y-84580457D01*
X132108819Y-84723314D01*
X132061200Y-84818552D01*
X132013580Y-84866171D01*
X131918342Y-84913790D01*
X131537390Y-84913790D01*
X132965961Y-84723314D02*
X132965961Y-85389980D01*
X132537390Y-84723314D02*
X132537390Y-85247123D01*
X132585009Y-85342361D01*
X132680247Y-85389980D01*
X132823104Y-85389980D01*
X132918342Y-85342361D01*
X132965961Y-85294742D01*
X133442152Y-85389980D02*
X133442152Y-84723314D01*
X133442152Y-84818552D02*
X133489771Y-84770933D01*
X133585009Y-84723314D01*
X133727866Y-84723314D01*
X133823104Y-84770933D01*
X133870723Y-84866171D01*
X133870723Y-85389980D01*
X133870723Y-84866171D02*
X133918342Y-84770933D01*
X134013580Y-84723314D01*
X134156438Y-84723314D01*
X134251676Y-84770933D01*
X134299295Y-84866171D01*
X134299295Y-85389980D01*
X134775485Y-85389980D02*
X134775485Y-84389980D01*
X134775485Y-84770933D02*
X134870723Y-84723314D01*
X135061200Y-84723314D01*
X135156438Y-84770933D01*
X135204057Y-84818552D01*
X135251676Y-84913790D01*
X135251676Y-85199504D01*
X135204057Y-85294742D01*
X135156438Y-85342361D01*
X135061200Y-85389980D01*
X134870723Y-85389980D01*
X134775485Y-85342361D01*
X135823104Y-85389980D02*
X135727866Y-85342361D01*
X135680247Y-85247123D01*
X135680247Y-84389980D01*
X136585009Y-85342361D02*
X136489771Y-85389980D01*
X136299295Y-85389980D01*
X136204057Y-85342361D01*
X136156438Y-85247123D01*
X136156438Y-84866171D01*
X136204057Y-84770933D01*
X136299295Y-84723314D01*
X136489771Y-84723314D01*
X136585009Y-84770933D01*
X136632628Y-84866171D01*
X136632628Y-84961409D01*
X136156438Y-85056647D01*
X143154495Y-90127200D02*
X143059257Y-90079580D01*
X142916400Y-90079580D01*
X142773542Y-90127200D01*
X142678304Y-90222438D01*
X142630685Y-90317676D01*
X142583066Y-90508152D01*
X142583066Y-90651009D01*
X142630685Y-90841485D01*
X142678304Y-90936723D01*
X142773542Y-91031961D01*
X142916400Y-91079580D01*
X143011638Y-91079580D01*
X143154495Y-91031961D01*
X143202114Y-90984342D01*
X143202114Y-90651009D01*
X143011638Y-90651009D01*
X143630685Y-91079580D02*
X143630685Y-90079580D01*
X144202114Y-91079580D01*
X144202114Y-90079580D01*
X144678304Y-91079580D02*
X144678304Y-90079580D01*
X144916400Y-90079580D01*
X145059257Y-90127200D01*
X145154495Y-90222438D01*
X145202114Y-90317676D01*
X145249733Y-90508152D01*
X145249733Y-90651009D01*
X145202114Y-90841485D01*
X145154495Y-90936723D01*
X145059257Y-91031961D01*
X144916400Y-91079580D01*
X144678304Y-91079580D01*
%TO.C,M1*%
X136604476Y-88641180D02*
X136604476Y-87641180D01*
X136937809Y-88355466D01*
X137271142Y-87641180D01*
X137271142Y-88641180D01*
X138271142Y-88641180D02*
X137699714Y-88641180D01*
X137985428Y-88641180D02*
X137985428Y-87641180D01*
X137890190Y-87784038D01*
X137794952Y-87879276D01*
X137699714Y-87926895D01*
%TO.C,R2*%
X137501333Y-91485980D02*
X137168000Y-91009790D01*
X136929904Y-91485980D02*
X136929904Y-90485980D01*
X137310857Y-90485980D01*
X137406095Y-90533600D01*
X137453714Y-90581219D01*
X137501333Y-90676457D01*
X137501333Y-90819314D01*
X137453714Y-90914552D01*
X137406095Y-90962171D01*
X137310857Y-91009790D01*
X136929904Y-91009790D01*
X137882285Y-90581219D02*
X137929904Y-90533600D01*
X138025142Y-90485980D01*
X138263238Y-90485980D01*
X138358476Y-90533600D01*
X138406095Y-90581219D01*
X138453714Y-90676457D01*
X138453714Y-90771695D01*
X138406095Y-90914552D01*
X137834666Y-91485980D01*
X138453714Y-91485980D01*
%TO.C,R1*%
X145384780Y-85370466D02*
X144908590Y-85703800D01*
X145384780Y-85941895D02*
X144384780Y-85941895D01*
X144384780Y-85560942D01*
X144432400Y-85465704D01*
X144480019Y-85418085D01*
X144575257Y-85370466D01*
X144718114Y-85370466D01*
X144813352Y-85418085D01*
X144860971Y-85465704D01*
X144908590Y-85560942D01*
X144908590Y-85941895D01*
X145384780Y-84418085D02*
X145384780Y-84989514D01*
X145384780Y-84703800D02*
X144384780Y-84703800D01*
X144527638Y-84799038D01*
X144622876Y-84894276D01*
X144670495Y-84989514D01*
%TO.C,Q1*%
X141687561Y-86044019D02*
X141592323Y-85996400D01*
X141497085Y-85901161D01*
X141354228Y-85758304D01*
X141258990Y-85710685D01*
X141163752Y-85710685D01*
X141211371Y-85948780D02*
X141116133Y-85901161D01*
X141020895Y-85805923D01*
X140973276Y-85615447D01*
X140973276Y-85282114D01*
X141020895Y-85091638D01*
X141116133Y-84996400D01*
X141211371Y-84948780D01*
X141401847Y-84948780D01*
X141497085Y-84996400D01*
X141592323Y-85091638D01*
X141639942Y-85282114D01*
X141639942Y-85615447D01*
X141592323Y-85805923D01*
X141497085Y-85901161D01*
X141401847Y-85948780D01*
X141211371Y-85948780D01*
X142592323Y-85948780D02*
X142020895Y-85948780D01*
X142306609Y-85948780D02*
X142306609Y-84948780D01*
X142211371Y-85091638D01*
X142116133Y-85186876D01*
X142020895Y-85234495D01*
%TO.C,D1*%
X132205504Y-91130380D02*
X132205504Y-90130380D01*
X132443600Y-90130380D01*
X132586457Y-90178000D01*
X132681695Y-90273238D01*
X132729314Y-90368476D01*
X132776933Y-90558952D01*
X132776933Y-90701809D01*
X132729314Y-90892285D01*
X132681695Y-90987523D01*
X132586457Y-91082761D01*
X132443600Y-91130380D01*
X132205504Y-91130380D01*
X133729314Y-91130380D02*
X133157885Y-91130380D01*
X133443600Y-91130380D02*
X133443600Y-90130380D01*
X133348361Y-90273238D01*
X133253123Y-90368476D01*
X133157885Y-90416095D01*
D11*
%TO.C,R2*%
X136833342Y-93080100D02*
X137307858Y-93080100D01*
X136833342Y-92035100D02*
X137307858Y-92035100D01*
%TO.C,R1*%
X144257500Y-87849942D02*
X144257500Y-88324458D01*
X145302500Y-87849942D02*
X145302500Y-88324458D01*
%TO.C,Q1*%
X141630400Y-86679600D02*
X142280400Y-86679600D01*
X141630400Y-89799600D02*
X142280400Y-89799600D01*
X141630400Y-86679600D02*
X139955400Y-86679600D01*
X141630400Y-89799600D02*
X140980400Y-89799600D01*
%TO.C,D1*%
X134990400Y-93608400D02*
X131090400Y-93608400D01*
X134990400Y-93608400D02*
X134990400Y-91608400D01*
X134990400Y-91608400D02*
X131090400Y-91608400D01*
%TD*%
M02*
